<?xml version="1.0" encoding="utf-8"?>
<!-- Generator: Adobe Illustrator 16.0.0, SVG Export Plug-In . SVG Version: 6.00 Build 0)  -->
<!DOCTYPE svg PUBLIC "-//W3C//DTD SVG 1.1//EN" "http://www.w3.org/Graphics/SVG/1.1/DTD/svg11.dtd">
<svg version="1.1" id="Layer_1" xmlns="http://www.w3.org/2000/svg" xmlns:xlink="http://www.w3.org/1999/xlink" x="0px" y="0px"
	 width="85px" height="24.6px" viewBox="0 0 85 24.6" enable-background="new 0 0 85 24.6" xml:space="preserve">
<g>
	<g>
		<g>
			<path d="M5.8,13.8h2.8l-0.3,2.9C8,19.2,7.9,21,8.8,22c0.6,0.7,1.9,1,4,1c4.6,0,5.2-1.7,5.7-6.4L20,1.5h-3.6l-1.6,15.3
				c-0.2,2.2-0.3,2.9-1.6,2.9c-0.3,0-0.7,0-1-0.3c-0.4-0.4-0.3-1-0.2-2.3l0-0.5h0l1.6-15.2H9.9L9,9.8H6.3l0.9-8.4H3.5L1.2,23h3.7
				L5.8,13.8z"/>
		</g>
		<g>
			<path d="M33.1,1.5h-6.1c-2.3,0-3.6,0.4-4.5,1.2c-1.4,1.5-1.7,4.2-2.1,8.4l-0.2,2c-0.2,1.9-0.4,3.6-0.4,5c0,3.5,0.7,5.1,5,5.1
				c0.4,0,0.7,0,1.1-0.1l0.1,0h2.2l0.4-3.4l-3.1,0c-1.2,0-1.8-0.3-1.8-2c0-0.8,0.1-1.8,0.3-3.5c0.1-0.6,0.1-1.3,0.2-2l0.1-0.9
				C25,5.7,25.1,4.9,27,4.9l0.1,0l5.4,0c1.3,0,1.3,1.2,1.3,1.6c0,0.6-0.1,1.5-0.2,2.4l0,0.2c-0.3,3-0.4,4.2-1.7,4.2h-1.1l0.6-5.7
				h-3.6l-1,9.4l5,0l0.6,6.1h3.6l-0.9-7.7l0.2-0.2c1.6-1.5,1.9-3.9,2.2-6.3c0.1-0.9,0.2-2.1,0.2-3C37.5,3.1,36.8,1.5,33.1,1.5z"/>
		</g>
	</g>
</g>
<g>
	<g>
		<g>
			<polygon points="42,7 43.6,7 43.1,11.4 45.3,11.4 46.3,1.4 44.2,1.4 43.8,5.4 42.2,5.4 42.6,1.4 40.4,1.4 39.4,11.4 41.5,11.4 
							"/>
		</g>
		<g>
			<path d="M48.7,8.5l0.7-7.1h-2.1l-0.7,6.8c0,0.3-0.1,0.5-0.1,0.8c0,0.2,0,0.4,0,0.6c0.1,0.4,0.2,0.8,0.4,1
				c0.2,0.3,0.5,0.5,0.8,0.6c0.4,0.1,0.8,0.2,1.4,0.2c0.6,0,1-0.1,1.4-0.2c0.4-0.1,0.7-0.4,1-0.6c0.2-0.3,0.4-0.6,0.6-1
				c0.1-0.4,0.2-0.9,0.3-1.4l0.7-6.8h-2.1l-0.7,7.1c0,0.2,0,0.3-0.1,0.4c0,0.1-0.1,0.2-0.1,0.4c0,0.1-0.1,0.2-0.2,0.3
				c-0.1,0.1-0.1,0.2-0.3,0.2c-0.1,0.1-0.2,0.1-0.4,0.1c-0.2,0-0.3,0-0.4-0.1c-0.1-0.1-0.2-0.2-0.2-0.3c0-0.1-0.1-0.3-0.1-0.5
				c0,0,0-0.1,0-0.1C48.7,8.8,48.7,8.7,48.7,8.5z"/>
		</g>
		<g>
			<polygon points="60.3,11.4 61.2,1.4 59,1.4 57.1,7.4 56.6,1.4 54.3,1.4 53.1,11.4 54.7,11.4 55.5,4.7 56.1,11.4 57.4,11.4 
				59.3,4.7 58.8,11.4 			"/>
		</g>
		<g>
			<polygon points="62.4,1.4 61.4,11.4 65.8,11.4 66,9.9 63.7,9.9 64.6,1.4 			"/>
		</g>
		<g>
			<polygon points="72.7,1.4 70.9,1.4 70.4,6.3 68.8,1.4 67.3,1.4 66.3,11.4 68.1,11.4 68.7,6.1 70.2,11.4 71.6,11.4 			"/>
		</g>
		<g>
			<polygon points="73.8,1.4 72.7,11.4 77.2,11.4 77.3,9.9 75,9.9 75.3,6.9 77.1,6.9 77.2,5.4 75.5,5.4 75.8,2.9 79.6,2.9 
				78.7,11.4 80.9,11.4 81.8,2.9 83.3,2.9 83.5,1.4 78.2,1.4 			"/>
		</g>
		<g>
			<path d="M44.5,14.2c-0.1-0.2-0.3-0.4-0.5-0.6c-0.2-0.2-0.5-0.3-0.8-0.4c-0.3-0.1-0.7-0.1-1.1-0.1c-0.6,0-1,0.1-1.4,0.2
				s-0.7,0.4-1,0.7c-0.3,0.3-0.5,0.6-0.6,1c-0.1,0.4-0.2,0.9-0.3,1.4L38.5,20c0,0.3,0,0.5,0,0.8c0,0.1,0,0.2,0,0.3
				c0,0.3,0.1,0.7,0.2,0.9c0.1,0.3,0.3,0.5,0.5,0.7c0.2,0.2,0.5,0.3,0.8,0.4c0.3,0.1,0.7,0.2,1.2,0.2c0.5,0,1-0.1,1.4-0.2
				c0.4-0.1,0.7-0.4,1-0.6c0.2-0.3,0.4-0.6,0.6-0.9c0.1-0.3,0.2-0.7,0.3-1.2l0.1-0.9h-2.1l-0.1,1c0,0.2,0,0.3-0.1,0.4s0,0.2-0.1,0.3
				c0,0.1-0.1,0.2-0.1,0.3c-0.1,0.1-0.1,0.1-0.2,0.2c-0.1,0.1-0.2,0.1-0.4,0.1c-0.3,0-0.5-0.1-0.6-0.3c-0.1-0.1-0.1-0.3-0.1-0.5
				c0-0.1,0-0.3,0-0.4l0.5-4.6c0-0.2,0-0.3,0.1-0.4c0-0.1,0-0.2,0.1-0.3c0-0.1,0.1-0.2,0.2-0.3c0.1-0.1,0.1-0.1,0.2-0.2
				c0.1,0,0.2-0.1,0.4-0.1c0.1,0,0.2,0,0.2,0c0.1,0,0.1,0,0.2,0.1c0,0,0.1,0.1,0.1,0.1c0,0,0.1,0.1,0.1,0.1c0,0,0,0.1,0,0.2
				c0,0.1,0,0.1,0,0.2c0,0,0,0.1,0,0.2c0,0.1,0,0.2,0,0.2c0,0,0,0.1,0,0.2l-0.1,1h2.1l0.1-0.9c0-0.2,0-0.4,0-0.6c0-0.1,0-0.3,0-0.4
				C44.7,14.7,44.6,14.5,44.5,14.2z"/>
		</g>
		<g>
			<g>
				<path d="M51.1,14c-0.2-0.2-0.4-0.4-0.6-0.5c-0.3-0.1-0.6-0.2-0.9-0.3c-0.3,0-0.7-0.1-1.1-0.1h-2.7l-1,9.9h2.2l0.5-4.5H48
					l0.7,4.5h2.2l-1-4.8c0.5-0.2,0.9-0.5,1.1-0.9c0.2-0.4,0.4-0.9,0.5-1.6c0-0.2,0-0.3,0-0.4c0-0.2,0-0.4-0.1-0.6
					C51.4,14.5,51.3,14.2,51.1,14z M49.5,16c0,0.5-0.2,0.8-0.4,1.1c-0.2,0.2-0.5,0.3-1,0.3h-0.5l0.3-2.8h0.7c0.4,0,0.7,0.1,0.8,0.3
					c0.1,0.2,0.2,0.4,0.2,0.7C49.5,15.8,49.5,15.9,49.5,16z"/>
			</g>
		</g>
		<g>
			<g>
				<path d="M58.7,13.2l-2.5,8.5h-2.3l0.3-3h1.7l0.2-1.5h-1.7l0.3-2.5h2.3l0.2-1.5h-4.4l-1,9.9h4.2h0.9h1.2l0.6-2.1h1.5l0.1,2.1h2
					l-0.8-9.9H58.7z M58.7,19.7l1-3.9l0.1,3.9H58.7z"/>
			</g>
		</g>
		<g>
			<polygon points="67.5,13.2 62.3,13.2 62.1,14.8 63.6,14.8 62.8,23.2 64.9,23.2 65.8,14.8 67.3,14.8 			"/>
		</g>
		<g>
			<polygon points="66.9,23.2 69.1,23.2 70.1,13.2 68,13.2 			"/>
		</g>
		<g>
			<polygon points="74.7,13.2 73,19.9 72.6,13.2 70.7,13.2 71.5,23.2 73.8,23.2 76.7,13.2 			"/>
		</g>
		<g>
			<polygon points="76.2,23.2 80.7,23.2 80.8,21.7 78.5,21.7 78.8,18.7 80.6,18.7 80.7,17.2 79,17.2 79.2,14.7 81.5,14.7 81.7,13.2 
				77.2,13.2 			"/>
		</g>
	</g>
</g>
</svg>
