<svg width="111" height="110" viewBox="0 0 111 110" xmlns="http://www.w3.org/2000/svg">
    <g fill="#106338" fill-rule="evenodd">
        <path d="M108.435 108h2v2h-2zM96.435 108h2v2h-2zM108.435 96h2v2h-2zM96.435 96h2v2h-2zM108.435 84h2v2h-2zM96.435 84h2v2h-2zM108.435 72h2v2h-2zM96.435 72h2v2h-2zM108.435 60h2v2h-2zM96.435 60h2v2h-2zM108.435 48h2v2h-2zM96.435 48h2v2h-2zM108.435 36h2v2h-2zM96.435 36h2v2h-2zM108.435 24h2v2h-2zM96.435 24h2v2h-2zM108.435 12h2v2h-2zM96.435 12h2v2h-2zM84.435 12h2v2h-2zM72.435 12h2v2h-2zM60.435 12h2v2h-2zM48.435 12h2v2h-2zM36.435 12h2v2h-2zM24.435 12h2v2h-2zM12.435 12h2v2h-2zM.435 12h2v2h-2zM108.435 0h2v2h-2zM96.435 0h2v2h-2zM84.435 0h2v2h-2zM72.435 0h2v2h-2zM60.435 0h2v2h-2zM48.435 0h2v2h-2zM36.435 0h2v2h-2zM24.435 0h2v2h-2zM12.435 0h2v2h-2zM.435 0h2v2h-2z"/>
    </g>
</svg>
