<svg width="110" height="110" viewBox="0 0 110 110" xmlns="http://www.w3.org/2000/svg">
    <g fill="#106338" fill-rule="evenodd">
        <path d="M2 108H0v2h2zM14 108h-2v2h2zM2 96H0v2h2zM14 96h-2v2h2zM2 84H0v2h2zM14 84h-2v2h2zM2 72H0v2h2zM14 72h-2v2h2zM2 60H0v2h2zM14 60h-2v2h2zM2 48H0v2h2zM14 48h-2v2h2zM2 36H0v2h2zM14 36h-2v2h2zM2 24H0v2h2zM14 24h-2v2h2zM2 12H0v2h2zM14 12h-2v2h2zM26 12h-2v2h2zM38 12h-2v2h2zM50 12h-2v2h2zM62 12h-2v2h2zM74 12h-2v2h2zM86 12h-2v2h2zM98 12h-2v2h2zM110 12h-2v2h2zM2 0H0v2h2zM14 0h-2v2h2zM26 0h-2v2h2zM38 0h-2v2h2zM50 0h-2v2h2zM62 0h-2v2h2zM74 0h-2v2h2zM86 0h-2v2h2zM98 0h-2v2h2zM110 0h-2v2h2z"/>
    </g>
</svg>
