<svg width="32" height="32" viewBox="0 0 32 32" xmlns="http://www.w3.org/2000/svg">
    <g fill="none" fill-rule="evenodd">
        <path d="M0 0h32v32H0z"/>
        <path d="M8.686 6.857a1.825 1.825 0 0 0-1.829 1.829v14.628c0 1.013.816 1.829 1.829 1.829h14.628a1.825 1.825 0 0 0 1.829-1.829V8.686a1.825 1.825 0 0 0-1.829-1.829H8.686zm8.7 3.293h1.789v2.05h-1.073c-.855 0-.976.279-.976.83v1.22h2.049l-.244 2.05h-1.805v6.148h-2.659v-6.149h-1.44v-2.05h1.44v-1.367c0-1.726.724-2.732 2.918-2.732z" fill="#181818" fill-rule="nonzero"/>
    </g>
</svg>
