<svg width="32" height="32" viewBox="0 0 32 32" xmlns="http://www.w3.org/2000/svg">
    <g fill="none" fill-rule="evenodd">
        <path d="M0 0h32v32H0z"/>
        <path d="M19.545 6.857a5.614 5.614 0 0 1 5.598 5.598v7.09a5.614 5.614 0 0 1-5.598 5.598h-7.09a5.614 5.614 0 0 1-5.598-5.598v-7.09a5.614 5.614 0 0 1 5.598-5.598h7.09zm-3.495 4.38a4.792 4.792 0 1 0 .02 9.583 4.792 4.792 0 0 0-.02-9.584zm0 1.492a3.299 3.299 0 1 1 .004 6.598 3.299 3.299 0 0 1-.004-6.598zm4.827-2.7a1.07 1.07 0 1 0 0 2.138 1.07 1.07 0 0 0 0-2.138z" fill="#181818" fill-rule="nonzero"/>
    </g>
</svg>
