<svg width="17" height="17" viewBox="0 0 17 17" xmlns="http://www.w3.org/2000/svg">
    <g fill="none" fill-rule="evenodd" opacity=".653">
        <path d="M.5.533h16v16H.5z"/>
        <path d="M10.464 3.033A5.01 5.01 0 0 1 14 6.57M9.946 4.966a3.006 3.006 0 0 1 2.122 2.122M6.28 8.334a5.272 5.272 0 0 0 2.44 2.43c.159.075.345.06.49-.037l1.565-1.043a.5.5 0 0 1 .474-.044l2.927 1.255a.498.498 0 0 1 .3.518 3 3 0 0 1-2.976 2.62 8.5 8.5 0 0 1-8.5-8.5 3 3 0 0 1 2.62-2.976.498.498 0 0 1 .519.3l1.255 2.93a.5.5 0 0 1-.04.47l-1.04 1.59a.496.496 0 0 0-.034.487z" stroke="#181818" stroke-width="1.4" stroke-linecap="round" stroke-linejoin="round"/>
    </g>
</svg>
