<svg width="33" height="33" viewBox="0 0 33 33" xmlns="http://www.w3.org/2000/svg">
    <g fill="none" fill-rule="evenodd">
        <path d="M.83.5h32v32h-32z"/>
        <path d="M12.39 16.102a10.543 10.543 0 0 0 4.881 4.86.99.99 0 0 0 .979-.075l3.13-2.086a1 1 0 0 1 .948-.088l5.855 2.51a.997.997 0 0 1 .6 1.037 6.001 6.001 0 0 1-5.953 5.24c-9.389 0-17-7.611-17-17 0-3.02 2.245-5.57 5.24-5.952a.997.997 0 0 1 1.038.6l2.51 5.86a1 1 0 0 1-.082.94l-2.08 3.178a.991.991 0 0 0-.066.976zM20.83 7.5v5h5M20.83 12.5l6-6" stroke="#106338" stroke-width="2" stroke-linecap="round" stroke-linejoin="round"/>
    </g>
</svg>
