<svg width="30" height="27" viewBox="0 0 30 27" xmlns="http://www.w3.org/2000/svg">
    <g fill="#FFF" fill-rule="nonzero">
        <path d="M8.764 27H2.337a1.343 1.343 0 0 1-1.345-1.35V19.2c0-.483.256-.928.673-1.17.416-.24.929-.24 1.345 0 .416.242.673.687.673 1.17v5.1h5.082c.48 0 .925.257 1.165.675.24.418.24.932 0 1.35-.24.418-.684.675-1.165.675zM8.764 2.7H3.683v5.1c0 .482-.257.928-.673 1.17a1.34 1.34 0 0 1-1.345 0A1.35 1.35 0 0 1 .992 7.8V1.35c0-.358.142-.701.394-.954C1.638.142 1.981 0 2.337 0h6.428c.48 0 .925.258 1.165.675.24.418.24.933 0 1.35-.24.418-.684.675-1.165.675zM29.992 25.65c0 .358-.142.702-.394.955a1.343 1.343 0 0 1-.951.395h-6.429c-.48 0-.924-.257-1.165-.675a1.354 1.354 0 0 1 0-1.35c.24-.418.685-.675 1.165-.675h5.083v-5.1c0-.483.257-.928.673-1.17.416-.24.93-.24 1.345 0 .417.242.673.687.673 1.17v6.45zM29.992 7.8c0 .482-.256.928-.673 1.169a1.34 1.34 0 0 1-1.345 0 1.35 1.35 0 0 1-.673-1.169V2.7h-5.083c-.48 0-.924-.257-1.165-.675a1.354 1.354 0 0 1 0-1.35c.24-.418.685-.675 1.165-.675h6.429a1.343 1.343 0 0 1 1.345 1.35V7.8z"/>
    </g>
</svg>
